<svg width="56" height="66" viewBox="0 0 56 66" fill="none" xmlns="http://www.w3.org/2000/svg">
<g clip-path="url(#clip0_76_768)">
<path fill-rule="evenodd" clip-rule="evenodd" d="M16.2236 7.79859C16.2236 7.9518 15.7762 12.977 15.6429 14.3204C15.5541 15.2162 15.4225 16.6592 15.3505 17.527C15.2785 18.3948 15.1671 19.6316 15.103 20.2755C15.0388 20.9193 14.963 21.7668 14.9344 22.1587C14.9058 22.5506 14.7692 24.0085 14.6307 25.3983L14.3789 27.9253L14.566 28.5031C14.669 28.8209 14.781 29.1267 14.8149 29.1827C14.8489 29.2386 14.9412 29.5593 15.0201 29.8952C15.099 30.2312 15.3013 30.9641 15.4697 31.524C15.7897 32.5881 16.0302 33.4195 16.5594 35.2904C16.7336 35.9063 17.052 37.0057 17.267 37.7336C17.7199 39.2669 18.5597 42.1969 18.8424 43.2306C18.9497 43.6225 19.2246 44.5845 19.4533 45.3683C19.682 46.1521 20.117 47.6625 20.42 48.7246C20.7229 49.7868 21.0266 50.7601 21.095 50.8878C21.2365 51.1521 21.3818 51.1928 21.3818 50.9682C21.3818 50.7808 21.5515 48.8547 21.9245 44.8084C22.4312 39.3117 22.5513 37.9666 22.6747 36.4102C22.7745 35.1508 23.0597 32.1013 23.1624 31.1967C23.1764 31.0727 23.1614 30.9582 23.1289 30.9422C23.0963 30.9262 22.8186 29.9983 22.5117 28.8799C22.2048 27.7617 21.9237 26.7997 21.8872 26.7422C21.8506 26.6848 21.795 26.5003 21.7634 26.3324C21.7099 26.0475 21.5111 25.351 20.6008 22.2605C20.4029 21.5886 20.1814 20.8099 20.1085 20.53C19.9821 20.0439 19.5231 18.4431 18.62 15.3383C18.392 14.5545 18.1162 13.5738 18.0072 13.1591C17.8982 12.7443 17.6801 11.9884 17.5225 11.4795C17.3649 10.9704 17.1792 10.3249 17.1096 10.0449C16.7778 8.70886 16.4358 7.75452 16.2888 7.75452C16.2529 7.75452 16.2236 7.77437 16.2236 7.79859ZM32.2487 20.6063C32.2245 20.9002 32.1092 22.1485 31.9925 23.3803C31.8758 24.612 31.7053 26.536 31.6134 27.6557C31.5216 28.7755 31.3922 30.2041 31.3258 30.8304C31.2594 31.4567 31.1814 32.4416 31.1527 33.0191L31.1003 34.0689L31.555 35.1378C31.9706 36.1148 32.1981 36.6421 33.1141 38.7515C33.2843 39.1434 33.7901 40.2887 34.238 41.2964C34.6861 42.3042 35.1728 43.4036 35.3198 43.7395C35.4667 44.0755 35.822 44.8771 36.1094 45.521C36.3968 46.1648 36.7821 47.0352 36.9657 47.4551C37.1494 47.875 37.4432 48.5392 37.6188 48.9312C37.7944 49.3231 38.0578 49.9287 38.2042 50.2769C38.4631 50.8926 38.6481 51.1078 38.7785 50.945C38.8136 50.9011 38.9028 50.0407 38.9766 49.033C39.0504 48.0252 39.1648 46.7265 39.2308 46.1468C39.2968 45.5672 39.4455 43.9868 39.5614 42.6349C39.6772 41.2829 39.8274 39.6827 39.895 39.0789C40.0566 37.6361 40.0502 37.2119 39.8609 36.8294C39.7744 36.6548 39.2456 35.4584 38.6857 34.1707C38.1258 32.883 37.4969 31.44 37.2882 30.9641C37.0796 30.4882 36.7633 29.7553 36.5856 29.3354C36.4078 28.9154 36.1408 28.297 35.9923 27.9611C35.8437 27.6252 35.5425 26.938 35.323 26.4342C35.1035 25.9303 34.8208 25.2889 34.6948 25.009C34.4567 24.4802 34.1341 23.7504 33.525 22.3623C33.3284 21.9144 33.0646 21.2916 32.9389 20.9783C32.7097 20.407 32.4971 20.0719 32.3639 20.0719C32.3247 20.0719 32.2728 20.3124 32.2487 20.6063Z" fill="#0896F6"/>
<path fill-rule="evenodd" clip-rule="evenodd" d="M13.5619 7.15298C12.7344 7.3526 11.5846 7.95666 10.8415 8.5822C9.95467 9.32878 8.75904 11.0911 8.28349 12.3525C7.77981 13.6887 7.65327 14.2778 7.44527 16.2545C7.23287 18.2729 6.89326 21.903 6.74533 23.7365C6.69791 24.3244 6.54466 25.9735 6.40481 27.4012C6.26487 28.8289 6.09689 30.7528 6.03133 31.6767C5.96577 32.6005 5.78008 34.5931 5.61868 36.1048C5.45719 37.6165 5.32499 39.0628 5.32491 39.3188C5.32482 39.5748 5.19295 41.0407 5.0318 42.5763C4.64876 46.2272 4.5951 47.4069 4.77331 48.2535C5.17415 50.1571 6.32943 51.4785 7.98706 51.9291C9.1925 52.2569 10.6153 51.6913 11.4874 50.5378C12.2779 49.4923 12.7176 48.0513 12.7264 46.4776C12.728 46.1921 12.8396 44.8866 12.9745 43.5764C13.1094 42.2664 13.2784 40.4617 13.3502 39.5659C13.5085 37.5908 13.8534 33.8035 14.0268 32.1347C14.0967 31.4629 14.1865 30.3864 14.2266 29.7425C14.2666 29.0987 14.4143 27.474 14.5547 26.1321C14.695 24.7903 14.8657 23.0038 14.934 22.162C15.0023 21.3204 15.095 20.2882 15.1399 19.8683C15.1848 19.4484 15.28 18.3948 15.3514 17.527C15.4229 16.6591 15.5541 15.2162 15.643 14.3204C15.7318 13.4246 15.8992 11.5955 16.015 10.2557C16.1308 8.91609 16.2459 7.79511 16.2707 7.76468C16.2956 7.73434 16.3524 7.77689 16.3971 7.85924C16.478 8.00848 16.4724 7.93498 16.3468 7.19462L16.3036 6.94012L15.3276 6.95132C14.7483 6.95794 14.0307 7.03989 13.5619 7.15298ZM29.6345 19.9181C27.9372 20.4415 26.707 21.2625 25.6776 22.559C24.261 24.343 23.4916 26.581 23.2956 29.488C23.2503 30.1599 23.195 30.8928 23.1728 31.1168C23.1506 31.3407 23.0582 32.2569 22.9674 33.1527C22.8766 34.0485 22.7465 35.4915 22.6783 36.3593C22.5528 37.9572 22.4407 39.212 21.9241 44.8084C21.7665 46.516 21.5759 48.6232 21.5005 49.491C21.425 50.3588 21.3301 51.0841 21.2894 51.1028C21.2487 51.1215 21.2154 51.2695 21.2154 51.4317C21.2154 51.8226 21.4105 51.8774 22.5371 51.8031C24.6594 51.6632 26.1653 50.9531 27.6063 49.4128C28.6738 48.272 29.794 45.9833 30.0096 44.503C30.3023 42.493 30.5403 40.2602 30.6211 38.7672C30.67 37.8627 30.7856 36.4814 30.878 35.6976C30.9703 34.9138 31.0958 33.6082 31.1569 32.7964C31.2179 31.9846 31.3083 30.9539 31.3577 30.506C31.4071 30.0581 31.5223 28.7755 31.6139 27.6557C31.7055 26.5359 31.8759 24.612 31.9926 23.3802C32.1092 22.1485 32.2249 20.8967 32.2495 20.5986C32.2822 20.2028 32.3242 20.0705 32.4054 20.1086C32.487 20.147 32.4797 20.0815 32.3778 19.8625C32.2401 19.5664 32.2335 19.5642 31.4903 19.5705C30.9294 19.5752 30.4638 19.6624 29.6345 19.9181ZM43.4707 29.9962C42.7722 30.1861 42.485 30.3547 41.8932 30.9219C41.3614 31.4317 40.7804 32.3114 40.6216 32.8473C40.5718 33.0153 40.4691 33.5879 40.3934 34.1198C40.3176 34.6517 40.2207 35.3077 40.178 35.5777C40.1354 35.8477 40.0626 36.718 40.0164 37.5118C39.9701 38.3056 39.9151 39.0238 39.8941 39.1078C39.873 39.1918 39.7411 40.5824 39.6009 42.1982C39.4606 43.8139 39.293 45.6005 39.2284 46.1683C39.1638 46.736 39.0502 48.0244 38.9761 49.0314C38.902 50.0383 38.8038 50.9174 38.758 50.9848C38.7123 51.0523 38.687 51.2362 38.7017 51.3936L38.7285 51.6796L39.6361 51.7087C41.068 51.7546 42.5561 51.3201 43.6787 50.5285C45.0943 49.5304 46.3876 47.7128 46.9886 45.8773C47.4361 44.5102 47.8047 42.2076 47.9239 40.036C47.965 39.2867 48.098 37.7751 48.2195 36.6767C48.4702 34.4096 48.4524 34.0763 48.012 32.7818C47.7256 31.94 47.095 31.0536 46.4574 30.5963C46.0081 30.2742 44.7551 29.8415 44.3033 29.8524C44.1199 29.8568 43.7453 29.9216 43.4707 29.9962Z" fill="#FBFBFB"/>
</g>
<defs>
<clipPath id="clip0_76_768">
<rect width="56" height="66" fill="white"/>
</clipPath>
</defs>
</svg>
