<svg width="96" height="92" viewBox="0 0 96 92" fill="none" xmlns="http://www.w3.org/2000/svg">
<path fill-rule="evenodd" clip-rule="evenodd" d="M30.5382 11.9039C30.5382 12.1112 29.6961 18.91 29.4452 20.7275C29.278 21.9395 29.0302 23.8918 28.8948 25.0659C28.7593 26.24 28.5496 27.9133 28.4289 28.7844C28.3081 29.6555 28.1653 30.8021 28.1116 31.3323C28.0577 31.8626 27.8006 33.8349 27.5398 35.7153L27.0659 39.1341L27.4181 39.9159C27.612 40.3458 27.8228 40.7596 27.8867 40.8353C27.9506 40.9111 28.1244 41.3449 28.2729 41.7994C28.4214 42.2539 28.8022 43.2455 29.1192 44.003C29.7215 45.4426 30.1743 46.5676 31.1704 49.0988C31.4984 49.932 32.0977 51.4194 32.5024 52.4042C33.3548 54.4787 34.9356 58.4428 35.4679 59.8413C35.6697 60.3715 36.1872 61.673 36.6177 62.7335C37.0482 63.794 37.8671 65.8374 38.4373 67.2744C39.0075 68.7115 39.5793 70.0284 39.708 70.2011C39.9744 70.5586 40.2478 70.6137 40.2478 70.3099C40.2478 70.0563 40.5673 67.4504 41.2694 61.976C42.2231 54.5393 42.4493 52.7194 42.6815 50.6138C42.8694 48.9098 43.4063 44.784 43.5995 43.5602C43.626 43.3924 43.5977 43.2375 43.5364 43.2159C43.4752 43.1943 42.9524 41.9388 42.3747 40.4257C41.797 38.9128 41.268 37.6113 41.1992 37.5335C41.1303 37.4558 41.0255 37.2063 40.9662 36.979C40.8655 36.5937 40.4912 35.6514 38.7778 31.47C38.4052 30.5611 37.9883 29.5075 37.8511 29.1287C37.6131 28.4711 36.7491 26.3054 35.0491 22.1048C34.62 21.0443 34.1009 19.7175 33.8957 19.1564C33.6905 18.5951 33.2799 17.5725 32.9833 16.8839C32.6867 16.1952 32.337 15.3218 32.2061 14.9431C31.5815 13.1355 30.9377 11.8443 30.661 11.8443C30.5935 11.8443 30.5382 11.8712 30.5382 11.9039ZM60.7032 29.232C60.6576 29.6296 60.4406 31.3186 60.221 32.985C60.0013 34.6515 59.6802 37.2545 59.5073 38.7694C59.3346 40.2844 59.0909 42.2172 58.966 43.0647C58.841 43.9119 58.6942 45.2444 58.6401 46.0257L58.5415 47.4461L59.3974 48.8922C60.1797 50.2141 60.608 50.9275 62.3322 53.7814C62.6525 54.3117 63.6046 55.8611 64.4478 57.2245C65.2911 58.588 66.2075 60.0754 66.484 60.5299C66.7606 60.9844 67.4295 62.069 67.9704 62.9401C68.5113 63.8112 69.2365 64.9888 69.5822 65.5569C69.928 66.125 70.4811 67.0236 70.8117 67.5539C71.1421 68.0841 71.638 68.9034 71.9136 69.3746C72.4009 70.2076 72.7491 70.4987 72.9945 70.2785C73.0606 70.2191 73.2285 69.0551 73.3675 67.6916C73.5064 66.3281 73.7218 64.571 73.846 63.7868C73.9701 63.0026 74.2502 60.8645 74.4683 59.0353C74.6863 57.2062 74.969 55.0412 75.0963 54.2243C75.4004 52.2724 75.3884 51.6983 75.0319 51.1809C74.8692 50.9447 73.8738 49.326 72.8199 47.5838C71.7659 45.8416 70.5821 43.8894 70.1893 43.2455C69.7966 42.6016 69.2013 41.61 68.8668 41.0419C68.5321 40.4738 68.0294 39.6371 67.7499 39.1826C67.4702 38.7281 66.9033 37.7985 66.4901 37.1168C66.077 36.435 65.5448 35.5674 65.3076 35.1886C64.8594 34.4731 64.2522 33.4858 63.1055 31.6078C62.7355 31.0018 62.239 30.1592 62.0024 29.7353C61.5709 28.9624 61.1707 28.509 60.9201 28.509C60.8462 28.509 60.7486 28.8344 60.7032 29.232Z" fill="#0896F6"/>
<path fill-rule="evenodd" clip-rule="evenodd" d="M25.5281 11.0305C23.9704 11.3006 21.8061 12.1178 20.4073 12.9642C18.738 13.9742 16.4874 16.3585 15.5922 18.0652C14.6441 19.873 14.4059 20.67 14.0144 23.3443C13.6146 26.0751 12.9753 30.9864 12.6969 33.4671C12.6076 34.2624 12.3191 36.4936 12.0559 38.4252C11.7925 40.3567 11.4763 42.9597 11.3529 44.2096C11.2295 45.4594 10.8799 48.1554 10.5761 50.2006C10.2721 52.2458 10.0233 54.2026 10.0231 54.549C10.023 54.8954 9.77474 56.8786 9.4714 58.9562C8.75038 63.8957 8.64937 65.4917 8.98482 66.6371C9.73935 69.2125 11.914 71.0003 15.0342 71.61C17.3033 72.0535 19.9814 71.2883 21.6231 69.7276C23.1111 68.3132 23.9387 66.3635 23.9553 64.2345C23.9583 63.8481 24.1685 62.0818 24.4223 60.3093C24.6762 58.5369 24.9944 56.0952 25.1296 54.8832C25.4276 52.2111 26.0767 47.0871 26.4031 44.8293C26.5347 43.9204 26.7038 42.4639 26.7793 41.5928C26.8546 40.7217 27.1326 38.5236 27.3968 36.7081C27.661 34.8928 27.9823 32.4757 28.1109 31.3369C28.2395 30.1982 28.4139 28.8017 28.4983 28.2335C28.5829 27.6654 28.7621 26.24 28.8966 25.0659C29.0311 23.8918 29.2781 21.9395 29.4453 20.7276C29.6126 19.5156 29.9277 17.0409 30.1457 15.2283C30.3637 13.4159 30.5803 11.8993 30.6269 11.8581C30.6738 11.817 30.7807 11.8746 30.8648 11.986C31.0172 12.1879 31.0067 12.0885 30.7702 11.0868L30.689 10.7425L28.8518 10.7577C27.7614 10.7666 26.4105 10.8775 25.5281 11.0305ZM55.7824 28.301C52.5875 29.0091 50.2717 30.1198 48.334 31.8739C45.6675 34.2876 44.2193 37.3155 43.8504 41.2485C43.765 42.1575 43.661 43.1491 43.6192 43.4521C43.5774 43.7551 43.4034 44.9946 43.2325 46.2066C43.0615 47.4186 42.8168 49.3708 42.6883 50.5449C42.452 52.7068 42.2411 54.4045 41.2687 61.9761C40.9719 64.2864 40.6131 67.1373 40.4713 68.3114C40.3292 69.4855 40.1505 70.4668 40.0739 70.492C39.9974 70.5173 39.9347 70.7176 39.9347 70.937C39.9347 71.4658 40.302 71.5401 42.4226 71.4395C46.4175 71.2502 49.252 70.2895 51.9646 68.2056C53.9739 66.6621 56.0826 63.5657 56.4884 61.5629C57.0393 58.8435 57.4874 55.8227 57.6394 53.8027C57.7315 52.579 57.9492 50.7102 58.123 49.6497C58.2967 48.5892 58.533 46.8229 58.648 45.7246C58.7629 44.6262 58.933 43.2317 59.026 42.6258C59.1191 42.0198 59.336 40.2844 59.5084 38.7695C59.6806 37.2545 60.0014 34.6515 60.2211 32.985C60.4407 31.3186 60.6583 29.625 60.7047 29.2216C60.7663 28.6861 60.8453 28.5072 60.9982 28.5587C61.1518 28.6106 61.138 28.5221 60.9462 28.2257C60.687 27.8252 60.6746 27.8222 59.2757 27.8307C58.2198 27.837 57.3434 27.9551 55.7824 28.301ZM81.827 41.936C80.5122 42.193 79.9716 42.4211 78.8576 43.1885C77.8564 43.8782 76.7629 45.0683 76.4639 45.7934C76.3702 46.0207 76.177 46.7954 76.0343 47.515C75.8918 48.2346 75.7094 49.1222 75.629 49.4875C75.5487 49.8527 75.4118 51.0303 75.3247 52.1042C75.2377 53.1782 75.1341 54.1499 75.0945 54.2635C75.0549 54.3771 74.8065 56.2586 74.5426 58.4447C74.2786 60.6306 73.963 63.0477 73.8415 63.8159C73.7198 64.584 73.5061 66.3272 73.3665 67.6896C73.227 69.0518 73.0422 70.2412 72.9561 70.3324C72.8699 70.4237 72.8223 70.6725 72.85 70.8855L72.9005 71.2725L74.6089 71.3117C77.3042 71.3738 80.1053 70.786 82.2186 69.7151C84.8832 68.3647 87.3177 65.9056 88.4489 63.4222C89.2913 61.5727 89.9852 58.4573 90.2094 55.5193C90.2868 54.5056 90.5372 52.4604 90.7659 50.9743C91.2377 47.9071 91.2044 47.4562 90.3753 45.7047C89.8362 44.5659 88.6492 43.3666 87.4489 42.7479C86.6032 42.3122 84.2448 41.7267 83.3942 41.7414C83.0491 41.7475 82.3439 41.8351 81.827 41.936Z" fill="#FBFBFB"/>
</svg>
