<svg width="223" height="61" viewBox="0 0 223 61" fill="none" xmlns="http://www.w3.org/2000/svg">
<path fill-rule="evenodd" clip-rule="evenodd" d="M19.9037 12.3908C14.2755 14.5753 13.8542 16.1379 13.9721 34.3717L14.0683 49.2279L16.4447 49.3455C17.7518 49.4103 19.1925 49.3649 19.6462 49.2446L20.4713 49.0257L20.576 34.5196C20.6928 18.329 20.6854 18.3729 23.2172 18.3861C25.9705 18.4004 26.0072 18.6138 26.0072 34.6379C26.0072 50.7858 25.6722 49.5414 29.9632 49.3424L32.4359 49.2279L32.6195 34.6205C32.8256 18.2413 32.8014 18.3802 35.4316 18.3802C38.1338 18.3802 38.1265 18.341 38.157 32.834C38.172 39.9301 38.2958 46.5214 38.4325 47.4818L38.6808 49.2279H41.6196H44.5584L44.849 46.3177C45.4257 40.5397 44.9879 19.5462 44.2543 17.7982C42.0997 12.6655 35.9106 10.3614 31.0583 12.8855L29.3134 13.793L27.5685 12.8991C25.4088 11.7928 22.0237 11.5682 19.9037 12.3908ZM54.4086 12.2747C48.5905 14.6564 48.0692 16.5046 48.0571 34.7838L48.0483 48.6653L48.9905 49.0436C50.0375 49.4638 53.1772 49.5523 54.0794 49.1864C54.5518 48.9951 54.6606 48.2745 54.6606 45.338C54.6606 40.4136 54.6099 40.4974 57.5994 40.4974C60.5966 40.4974 60.5977 40.4994 60.5077 45.1886C60.4724 47.0418 60.5569 48.7522 60.6961 48.99C61.0815 49.6489 66.2236 49.5519 66.7548 48.876C67.5608 47.85 67.1299 19.2859 66.2828 17.6042C64.0078 13.0869 58.4825 10.607 54.4086 12.2747ZM76.094 12.5692C70.8284 14.7747 70.4614 16.1934 70.4588 34.3376L70.4566 48.9369L71.6046 49.1794C73.0461 49.484 75.1627 49.4828 76.2424 49.1774L77.0689 48.9435V34.8005C77.0689 18.5688 77.0979 18.4004 79.8891 18.3861C82.5417 18.3729 82.5792 18.5995 82.5792 34.7295C82.5792 42.597 82.6207 49.0405 82.671 49.0486C84.2436 49.3047 87.6482 49.4281 88.3069 49.2535L89.1915 49.0191V34.0493C89.1915 17.7497 89.2293 18.0776 87.0282 15.2571C84.665 12.2289 79.7759 11.0272 76.094 12.5692ZM98.4649 12.5262C95.9955 13.7484 94.5452 15.1088 93.578 17.1087L92.6813 18.9623L92.5774 33.9468L92.473 48.9318L93.6335 49.1767C98.481 50.201 99.2661 49.5783 99.4189 44.5864L99.5442 40.4974H102.082H104.62L104.672 43.3106C104.738 46.8377 104.877 48.6583 105.098 48.8915C105.445 49.2585 110.338 49.3777 110.868 49.0319C111.72 48.4763 111.886 21.9477 111.057 18.9332C109.548 13.4504 103.161 10.2008 98.4649 12.5262ZM120.781 12.1463C118.262 12.9561 116.326 14.6653 115.04 17.2162C114.181 18.9196 114.001 41.5148 114.827 44.011C117.277 51.4167 129.184 51.7198 132.06 44.4494C132.741 42.7274 133.149 31.8124 132.588 30.3119L132.19 29.2448H128.397C123.967 29.2448 123.722 29.3985 123.722 32.1852C123.722 34.3329 124.082 34.9091 125.559 35.1249C127.074 35.3464 126.962 41.2902 125.416 42.694C124.21 43.789 122.943 43.6897 121.702 42.403C120.77 41.4368 120.374 21.7269 121.25 19.9323C122.96 16.43 126.42 18.2332 126.461 22.6485L126.478 24.3946L129.508 24.5071L132.539 24.62V22.03C132.539 14.6855 127.102 10.1154 120.781 12.1463ZM55.544 19.1963C54.91 19.9354 54.8442 20.6735 54.8442 27.0537V34.0951L57.3826 34.2111C60.8864 34.3714 62.4432 21.3785 59.2186 18.8882C58.2066 18.1063 56.3449 18.2623 55.544 19.1963ZM100.123 19.0593C99.6624 19.6075 99.528 21.1193 99.4233 26.9167L99.2936 34.0951L101.957 34.2092L104.62 34.3232V27.2139C104.62 18.9929 104.444 18.3802 102.085 18.3802C101.221 18.3802 100.477 18.6379 100.123 19.0593Z" fill="#FBFBFB"/>
<path fill-rule="evenodd" clip-rule="evenodd" d="M162.659 12.1463C159.99 13.0042 157.575 15.1243 156.504 17.5495C155.868 18.9902 155.299 45.8184 155.855 48.1573C156.062 49.0288 156.191 49.0602 159.091 48.9524L162.111 48.8399L162.294 44.7656L162.478 40.6914H165.049H167.621L167.727 44.3567C167.862 48.9966 167.94 49.0928 171.443 48.952L174.233 48.8399L174.33 34.2891C174.462 14.4341 171.722 9.23458 162.659 12.1463ZM183.201 12.3865C176.168 14.675 175.193 26.888 181.71 31.0724C189.097 35.8152 191.716 43.2136 186.009 43.2136C184.307 43.2136 183.471 42.1884 183.233 39.8114L183.05 37.9753L180.537 37.8597C174.655 37.5892 176.729 47.2672 182.973 49.2256C196.661 53.5194 199.872 37.8787 187.439 27.4715C183.029 23.7799 182.01 21.0929 184.205 18.9436C186.166 17.0237 188.178 18.1187 188.897 21.4984C189.797 25.7247 194.826 25.363 194.775 21.0762C194.695 14.5 189.256 10.4161 183.201 12.3865ZM136.964 13.303C136.55 14.119 136.398 47.306 136.803 48.42C136.997 48.9539 138.073 49.0339 145.068 49.0339H153.11V46.3406C153.11 43.0424 153.265 43.1461 148.056 42.9575C142.791 42.767 143.192 43.1604 143.192 38.1879C143.192 33.2371 142.919 33.513 147.814 33.513H151.274V30.6448C151.274 27.2709 150.997 27.0665 147.034 27.5146C143.417 27.924 143.192 27.6648 143.192 23.1005C143.192 18.2409 143.032 18.3802 148.608 18.3802H153.143L153.035 15.5671L152.927 12.7539L145.138 12.6491C137.731 12.5498 137.329 12.582 136.964 13.303ZM198.465 13.0372C198.367 13.3084 198.33 21.4747 198.382 31.1849L198.478 48.8399H206.56H214.642L214.753 46.3573C214.896 43.1425 214.928 43.1647 209.621 42.8771L205.091 42.6315L204.987 38.2768C204.866 33.2026 204.503 33.5778 209.682 33.4164L212.805 33.319L212.916 30.8365C213.056 27.6954 213.032 27.6753 208.922 27.472C204.736 27.2651 204.975 27.5317 204.863 22.9468C204.75 18.3003 204.398 18.613 209.987 18.3802L214.642 18.1862V15.4701V12.7539L206.643 12.6491C200.444 12.5684 198.604 12.6554 198.465 13.0372ZM163.36 19.1353L162.277 20.2788L162.378 27.1867L162.478 34.0951H165.049H167.621L167.726 27.6927C167.879 18.322 166.566 15.7487 163.36 19.1353ZM20.6631 34.6771C20.6631 42.4666 20.7119 45.6534 20.7722 41.7585C20.8321 37.8639 20.8321 31.4907 20.7722 27.5957C20.7119 23.7008 20.6631 26.8876 20.6631 34.6771Z" fill="#0496F7"/>
</svg>
