<svg width="51" height="46" viewBox="0 0 51 46" fill="none" xmlns="http://www.w3.org/2000/svg">
<path d="M3.62061 16.25H47.8049M13.4393 2.75V7.25M37.9862 2.75V7.25M10.9847 25.25H15.894M10.9847 34.25H15.894M23.2581 25.25H28.1674M23.2581 34.25H28.1674M35.5315 25.25H40.4409M35.5315 34.25H40.4409M11.4756 43.25H39.9499C42.6994 43.25 44.0743 43.25 45.1244 42.7595C46.0481 42.3282 46.7992 41.6397 47.2698 40.793C47.8049 39.8305 47.8049 38.5702 47.8049 36.05V14.45C47.8049 11.9298 47.8049 10.6696 47.2698 9.70705C46.7992 8.8603 46.0481 8.17189 45.1244 7.74048C44.0743 7.25 42.6994 7.25 39.9499 7.25H11.4756C8.7261 7.25 7.35133 7.25 6.30117 7.74048C5.3774 8.17189 4.62636 8.8603 4.1557 9.70705C3.62061 10.6696 3.62061 11.9298 3.62061 14.45V36.05C3.62061 38.5702 3.62061 39.8305 4.1557 40.793C4.62636 41.6397 5.3774 42.3282 6.30117 42.7595C7.35133 43.25 8.72608 43.25 11.4756 43.25Z" stroke="white" stroke-width="5.33333" stroke-linecap="round" stroke-linejoin="round"/>
</svg>
