<svg width="49" height="49" viewBox="0 0 49 49" fill="none" xmlns="http://www.w3.org/2000/svg">
<path d="M30.723 24.3353H2.00342M2.00342 24.3353L9.73561 17.6348M2.00342 24.3353L9.73561 31.0359" stroke="white" stroke-width="4" stroke-linecap="round" stroke-linejoin="round"/>
<path d="M17.4722 13.1676C17.4989 8.30964 17.712 5.67875 19.4095 3.96255C21.3507 2 24.475 2 30.7235 2H32.9327C39.1812 2 42.3056 2 44.2466 3.96255C46.1879 5.92511 46.1879 9.08378 46.1879 15.4011V33.2693C46.1879 39.5866 46.1879 42.7453 44.2466 44.7079C42.5491 46.4241 39.9469 46.6397 35.1414 46.6667M17.4722 35.5029C17.4989 40.3608 17.712 42.9916 19.4095 44.7079C20.8263 46.1402 22.8731 46.5273 26.3046 46.6318" stroke="white" stroke-width="4" stroke-linecap="round"/>
</svg>
