<svg width="45" height="43" viewBox="0 0 45 43" fill="none" xmlns="http://www.w3.org/2000/svg">
<path d="M17.0837 18.2011C21.8441 18.2011 25.7031 14.6293 25.7031 10.2231C25.7031 5.81699 21.8441 2.24512 17.0837 2.24512C12.3234 2.24512 8.46436 5.81699 8.46436 10.2231C8.46436 14.6293 12.3234 18.2011 17.0837 18.2011Z" stroke="white" stroke-width="4"/>
<path d="M30.0137 16.2065C33.584 16.2065 36.4782 13.5276 36.4782 10.223C36.4782 6.91842 33.584 4.2395 30.0137 4.2395" stroke="white" stroke-width="4" stroke-linecap="round"/>
<path d="M17.0839 40.1406C25.4145 40.1406 32.1678 36.5687 32.1678 32.1626C32.1678 27.7564 25.4145 24.1846 17.0839 24.1846C8.7533 24.1846 2 27.7564 2 32.1626C2 36.5687 8.7533 40.1406 17.0839 40.1406Z" stroke="white" stroke-width="4"/>
<path d="M36.4775 26.179C40.2576 26.9462 42.9421 28.8893 42.9421 31.1652C42.9421 33.2181 40.7577 35.0004 37.555 35.893" stroke="white" stroke-width="4" stroke-linecap="round"/>
</svg>
