<svg width="49" height="45" viewBox="0 0 49 45" fill="none" xmlns="http://www.w3.org/2000/svg">
<path fill-rule="evenodd" clip-rule="evenodd" d="M16.0692 18.3999H7.11627C5.8026 18.3906 4.53839 18.8334 3.6018 19.6309C2.66518 20.4284 2.1329 21.5154 2.12207 22.6526V38.7479C2.14638 41.1153 4.3819 43.0178 7.11627 42.9979H16.0692C17.3828 43.0075 18.6471 42.5647 19.5838 41.7672C20.5204 40.9697 21.0527 39.8827 21.0634 38.7452V22.6526C21.0527 21.5154 20.5204 20.4284 19.5838 19.6309C18.6471 18.8334 17.3828 18.3906 16.0692 18.3999Z" stroke="white" stroke-width="3.84" stroke-linecap="round" stroke-linejoin="round"/>
<path fill-rule="evenodd" clip-rule="evenodd" d="M16.0692 2.00165H7.11627C4.43689 1.93731 2.20286 3.76265 2.12207 6.08218V8.85355C2.20286 11.1731 4.43689 12.9984 7.11627 12.9341H16.0692C18.7485 12.9984 20.9826 11.1731 21.0634 8.85355V6.08218C20.9826 3.76265 18.7485 1.93731 16.0692 2.00165Z" stroke="#1C37C5" stroke-width="3.84" stroke-linecap="round" stroke-linejoin="round"/>
<path fill-rule="evenodd" clip-rule="evenodd" d="M32.3712 26.6001H41.3209C42.6352 26.6102 43.9001 26.1677 44.8374 25.3702C45.7747 24.5724 46.3076 23.4851 46.3183 22.3473V6.2547C46.3076 5.1174 45.7753 4.03038 44.8387 3.23284C43.902 2.43529 42.6377 1.99252 41.3241 2.00198H32.3712C31.0576 1.99252 29.7932 2.43529 28.8566 3.23284C27.9199 4.03038 27.3877 5.1174 27.377 6.2547V22.3473C27.3877 23.4846 27.9199 24.5715 28.8566 25.3691C29.7932 26.1666 31.0576 26.6094 32.3712 26.6001Z" stroke="white" stroke-width="3.84" stroke-linecap="round" stroke-linejoin="round"/>
<path fill-rule="evenodd" clip-rule="evenodd" d="M32.3712 42.9983H41.3209C44.0015 43.0642 46.2375 41.2384 46.3183 38.9178V36.1464C46.2375 33.8268 44.0034 32.0016 41.3241 32.0659H32.3712C29.6919 32.0016 27.4578 33.8268 27.377 36.1464V38.915C27.4559 41.2357 29.6906 43.0625 32.3712 42.9983Z" stroke="#0896F6" stroke-width="3.84" stroke-linecap="round" stroke-linejoin="round"/>
</svg>
