<svg width="26" height="23" viewBox="0 0 26 23" fill="none" xmlns="http://www.w3.org/2000/svg">
<path fill-rule="evenodd" clip-rule="evenodd" d="M4.50732 6.80002C4.50732 3.04448 7.0434 0 10.1718 0C13.3002 0 15.8363 3.04448 15.8363 6.80002C15.8363 10.5556 13.3002 13.6 10.1718 13.6C7.0434 13.6 4.50732 10.5556 4.50732 6.80002Z" fill="#1C37C5" stroke="black" stroke-width="0.00064"/>
<path d="M16.2986 10.6734C16.2413 10.8037 16.2656 10.9661 16.3641 11.0538C17.0962 11.7043 18.0022 12.089 18.9829 12.089C21.4161 12.089 23.3886 9.72113 23.3886 6.80014C23.3886 3.87915 21.4161 1.51123 18.9829 1.51123C18.0022 1.51123 17.0962 1.89596 16.3641 2.54654C16.2656 2.63419 16.2413 2.79656 16.2986 2.92683C16.807 4.08344 17.0947 5.40145 17.0947 6.80014C17.0947 8.19883 16.807 9.51682 16.2986 10.6734Z" fill="#1C37C5" stroke="black" stroke-width="0.00064"/>
<path fill-rule="evenodd" clip-rule="evenodd" d="M4.05539 16.1681C5.60665 15.3598 7.642 15.1113 10.1715 15.1113C12.7032 15.1113 14.74 15.3602 16.2918 16.1703C17.9822 17.0527 19.0097 18.5556 19.5482 20.6777C19.8005 21.6723 19.1782 22.6669 18.3206 22.6669H2.02481C1.16618 22.6669 0.542531 21.6708 0.795695 20.6744C1.33491 18.552 2.36389 17.0495 4.05539 16.1681Z" fill="#1C37C5" stroke="black" stroke-width="0.00064"/>
<path d="M16.8665 13.655C16.3454 13.6938 16.3148 14.5343 16.7937 14.7843C18.1058 15.4693 19.0938 16.4776 19.8024 17.7646C20.3838 18.8208 21.2867 19.6445 22.3412 19.6445H24.5826C25.4728 19.6445 26.1223 18.5826 25.8091 17.5452C25.7911 17.4855 25.7723 17.4263 25.753 17.3675C25.322 16.061 24.5832 15.0992 23.4893 14.4861C22.4623 13.9105 21.1766 13.673 19.6619 13.6012L19.637 13.6H19.6122C18.72 13.6 17.7881 13.5862 16.8665 13.655Z" fill="#1C37C5" stroke="black" stroke-width="0.00064"/>
</svg>
