<svg width="42" height="38" viewBox="0 0 42 38" fill="none" xmlns="http://www.w3.org/2000/svg">
<path d="M16.37 16.3158C20.594 16.3158 24.0182 13.1111 24.0182 9.15789C24.0182 5.2047 20.594 2 16.37 2C12.1459 2 8.72168 5.2047 8.72168 9.15789C8.72168 13.1111 12.1459 16.3158 16.37 16.3158Z" stroke="white" stroke-width="4"/>
<path d="M27.8423 14.5263C31.0104 14.5263 33.5785 12.1227 33.5785 9.15785C33.5785 6.19296 31.0104 3.78943 27.8423 3.78943" stroke="white" stroke-width="4" stroke-linecap="round"/>
<path d="M16.3698 36C23.7619 36 29.7543 32.7953 29.7543 28.8421C29.7543 24.8889 23.7619 21.6842 16.3698 21.6842C8.97779 21.6842 2.98535 24.8889 2.98535 28.8421C2.98535 32.7953 8.97779 36 16.3698 36Z" stroke="white" stroke-width="4"/>
<path d="M33.5781 23.4736C36.9323 24.162 39.3143 25.9053 39.3143 27.9473C39.3143 29.7892 37.3761 31.3883 34.5342 32.1891" stroke="white" stroke-width="4" stroke-linecap="round"/>
</svg>
