<svg width="46" height="48" viewBox="0 0 46 48" fill="none" xmlns="http://www.w3.org/2000/svg">
<path d="M28.951 24.1295H2M2 24.1295L9.25603 17.6187M2 24.1295L9.25603 30.6403" stroke="white" stroke-width="4" stroke-linecap="round" stroke-linejoin="round"/>
<path d="M16.5156 13.2781C16.5407 8.55771 16.7407 6.00132 18.3337 4.33373C20.1554 2.42676 23.0872 2.42676 28.9509 2.42676H31.0241C36.8878 2.42676 39.8198 2.42676 41.6413 4.33373C43.463 6.2407 43.463 9.30992 43.463 15.4484V32.8105C43.463 38.9489 43.463 42.0181 41.6413 43.9251C40.0483 45.5928 37.6063 45.8022 33.0968 45.8285M16.5156 34.9808C16.5407 39.7011 16.7407 42.2575 18.3337 43.9251C19.6632 45.3169 21.584 45.693 24.8042 45.7946" stroke="white" stroke-width="4" stroke-linecap="round"/>
</svg>
