<svg width="53" height="49" viewBox="0 0 53 49" fill="none" xmlns="http://www.w3.org/2000/svg">
<path fill-rule="evenodd" clip-rule="evenodd" d="M17.3107 19.9999H7.48246C6.04035 19.9897 4.65255 20.4757 3.6244 21.351C2.59621 22.2263 2.01189 23.4193 2 24.6675V42.3331C2.02668 44.9314 4.48076 47.0196 7.48246 46.9977H17.3107C18.7527 47.0082 20.1406 46.5222 21.1689 45.6469C22.1971 44.7716 22.7814 43.5786 22.7932 42.3301V24.6675C22.7814 23.4193 22.1971 22.2263 21.1689 21.351C20.1406 20.4757 18.7527 19.9897 17.3107 19.9999Z" stroke="white" stroke-width="3.84" stroke-linecap="round" stroke-linejoin="round"/>
<path fill-rule="evenodd" clip-rule="evenodd" d="M17.3107 2.00181H7.48246C4.54113 1.9312 2.08868 3.93461 2 6.48044V9.52219C2.08868 12.068 4.54113 14.0715 7.48246 14.0008H17.3107C20.2519 14.0715 22.7044 12.068 22.7932 9.52219V6.48044C22.7044 3.93461 20.2519 1.9312 17.3107 2.00181Z" stroke="#1C37C5" stroke-width="3.84" stroke-linecap="round" stroke-linejoin="round"/>
<path fill-rule="evenodd" clip-rule="evenodd" d="M35.2061 29H45.0309C46.4736 29.0111 47.8622 28.5254 48.8911 27.6501C49.92 26.7745 50.505 25.5812 50.5168 24.3324V6.66973C50.505 5.42147 49.9207 4.22841 48.8925 3.35305C47.8643 2.4777 46.4763 1.99174 45.0343 2.00212H35.2061C33.7641 1.99174 32.3761 2.4777 31.3479 3.35305C30.3197 4.22841 29.7354 5.42147 29.7236 6.66973V24.3324C29.7354 25.5806 30.3197 26.7736 31.3479 27.6489C32.3761 28.5242 33.7641 29.0102 35.2061 29Z" stroke="white" stroke-width="3.84" stroke-linecap="round" stroke-linejoin="round"/>
<path fill-rule="evenodd" clip-rule="evenodd" d="M35.2061 46.9981H45.0309C47.9734 47.0704 50.4281 45.0666 50.5168 42.5195V39.4778C50.4281 36.9319 47.9755 34.9286 45.0343 34.9991H35.2061C32.2649 34.9286 29.8124 36.9319 29.7236 39.4778V42.5165C29.8103 45.0636 32.2635 47.0686 35.2061 46.9981Z" stroke="#0896F6" stroke-width="3.84" stroke-linecap="round" stroke-linejoin="round"/>
</svg>
