<svg width="53" height="48" viewBox="0 0 53 48" fill="none" xmlns="http://www.w3.org/2000/svg">
<path d="M3 16.7672H49.959M13.4353 2.75879V7.42825M39.5237 2.75879V7.42825M10.8265 26.1061H16.0442M10.8265 35.445H16.0442M23.8707 26.1061H29.0883M23.8707 35.445H29.0883M36.9148 26.1061H42.1325M36.9148 35.445H42.1325M11.3483 44.7839H41.6107C44.5329 44.7839 45.9941 44.7839 47.1101 44.275C48.0918 43.8274 48.8901 43.113 49.3903 42.2344C49.959 41.2356 49.959 39.9279 49.959 37.3128V14.8994C49.959 12.2842 49.959 10.9767 49.3903 9.97782C48.8901 9.09919 48.0918 8.38486 47.1101 7.9372C45.9941 7.42825 44.5329 7.42825 41.6107 7.42825H11.3483C8.42611 7.42825 6.96501 7.42825 5.8489 7.9372C4.86712 8.38486 4.06892 9.09919 3.5687 9.97782C3 10.9767 3 12.2842 3 14.8994V37.3128C3 39.9279 3 41.2356 3.5687 42.2344C4.06892 43.113 4.86712 43.8274 5.8489 44.275C6.96501 44.7839 8.42608 44.7839 11.3483 44.7839Z" stroke="white" stroke-width="5.33333" stroke-linecap="round" stroke-linejoin="round"/>
</svg>
