<svg width="26" height="23" viewBox="0 0 26 23" fill="none" xmlns="http://www.w3.org/2000/svg">
<path fill-rule="evenodd" clip-rule="evenodd" d="M3.76855 6.80002C3.76855 3.04448 6.30463 0 9.43303 0C12.5615 0 15.0975 3.04448 15.0975 6.80002C15.0975 10.5556 12.5615 13.6 9.43303 13.6C6.30463 13.6 3.76855 10.5556 3.76855 6.80002Z" fill="#1C37C5" stroke="black" stroke-width="0.00064"/>
<path d="M15.5598 10.6734C15.5025 10.8037 15.5268 10.9661 15.6254 11.0538C16.3575 11.7043 17.2634 12.089 18.2441 12.089C20.6773 12.089 22.6498 9.72113 22.6498 6.80014C22.6498 3.87915 20.6773 1.51123 18.2441 1.51123C17.2634 1.51123 16.3575 1.89596 15.6254 2.54654C15.5268 2.63419 15.5025 2.79656 15.5598 2.92683C16.0682 4.08344 16.356 5.40145 16.356 6.80014C16.356 8.19883 16.0682 9.51682 15.5598 10.6734Z" fill="#1C37C5" stroke="black" stroke-width="0.00064"/>
<path fill-rule="evenodd" clip-rule="evenodd" d="M3.31662 16.1681C4.86788 15.3598 6.90323 15.1113 9.43274 15.1113C11.9644 15.1113 14.0013 15.3602 15.5531 16.1703C17.2435 17.0527 18.2709 18.5556 18.8094 20.6777C19.0618 21.6723 18.4394 22.6669 17.5818 22.6669H1.28604C0.427407 22.6669 -0.196239 21.6708 0.0569254 20.6744C0.596145 18.552 1.62512 17.0495 3.31662 16.1681Z" fill="#1C37C5" stroke="black" stroke-width="0.00064"/>
<path d="M16.1273 13.655C15.6061 13.6938 15.5756 14.5343 16.0544 14.7843C17.3665 15.4693 18.3545 16.4776 19.0631 17.7646C19.6445 18.8208 20.5475 19.6445 21.6019 19.6445H23.8433C24.7335 19.6445 25.383 18.5826 25.0698 17.5452C25.0518 17.4855 25.0331 17.4263 25.0137 17.3675C24.5827 16.061 23.8439 15.0992 22.7501 14.4861C21.723 13.9105 20.4373 13.673 18.9226 13.6012L18.8977 13.6H18.8729C17.9807 13.6 17.0488 13.5862 16.1273 13.655Z" fill="#1C37C5" stroke="black" stroke-width="0.00064"/>
</svg>
