<svg width="45" height="47" viewBox="0 0 45 47" fill="none" xmlns="http://www.w3.org/2000/svg">
<path fill-rule="evenodd" clip-rule="evenodd" d="M9.56219 1.15304C8.73463 1.35266 7.58484 1.95672 6.84172 2.58226C5.95492 3.32884 4.75929 5.09114 4.28373 6.3526C3.78006 7.68878 3.65351 8.27787 3.44552 10.2546C3.23312 12.273 2.8935 15.903 2.74558 17.7366C2.69816 18.3245 2.54491 19.9736 2.40505 21.4013C2.26511 22.829 2.09714 24.7529 2.03158 25.6767C1.96602 26.6005 1.78032 28.5932 1.61892 30.1049C1.45743 31.6165 1.32523 33.0629 1.32515 33.3189C1.32507 33.5749 1.1932 35.0408 1.03205 36.5764C0.649005 40.2273 0.595343 41.407 0.773551 42.2535C1.1744 44.1571 2.32968 45.4786 3.9873 45.9292C5.19275 46.257 6.6155 45.6914 7.48766 44.5379C8.27812 43.4924 8.71782 42.0514 8.72664 40.4777C8.72822 40.1922 8.83987 38.8866 8.97473 37.5765C9.1096 36.2665 9.27865 34.4617 9.35045 33.5659C9.50878 31.5909 9.85363 27.8035 10.027 26.1348C10.0969 25.4629 10.1868 24.3864 10.2269 23.7426C10.2669 23.0987 10.4145 21.474 10.5549 20.1322C10.6953 18.7904 10.866 17.0039 10.9343 16.1621C11.0026 15.3205 11.0953 14.2882 11.1401 13.8683C11.185 13.4484 11.2802 12.3948 11.3517 11.527C11.4231 10.6592 11.5544 9.21623 11.6432 8.32042C11.7321 7.42462 11.8995 5.59554 12.0153 4.2558C12.1311 2.91616 12.2461 1.79517 12.2709 1.76474C12.2958 1.7344 12.3526 1.77695 12.3973 1.85931C12.4783 2.00854 12.4727 1.93504 12.3471 1.19468L12.3039 0.940186L11.3279 0.951383C10.7486 0.958 10.0309 1.03995 9.56219 1.15304ZM25.6348 13.9182C23.9375 14.4415 22.7072 15.2625 21.6778 16.559C20.2612 18.3431 19.4919 20.5811 19.2959 23.4881C19.2505 24.1599 19.1953 24.8929 19.1731 25.1168C19.1509 25.3408 19.0584 26.257 18.9677 27.1528C18.8768 28.0486 18.7468 29.4915 18.6785 30.3593C18.553 31.9572 18.4409 33.2121 17.9244 38.8084C17.7667 40.5161 17.5761 42.6233 17.5007 43.4911C17.4253 44.3589 17.3303 45.0842 17.2896 45.1028C17.249 45.1216 17.2157 45.2696 17.2157 45.4317C17.2157 45.8226 17.4108 45.8775 18.5374 45.8032C20.6596 45.6632 22.1655 44.9532 23.6066 43.4129C24.674 42.2721 25.7942 39.9834 26.0098 38.5031C26.3025 36.4931 26.5405 34.2603 26.6213 32.7672C26.6702 31.8628 26.7859 30.4815 26.8782 29.6977C26.9705 28.9138 27.096 27.6083 27.1571 26.7965C27.2182 25.9846 27.3085 24.954 27.3579 24.5061C27.4074 24.0581 27.5226 22.7755 27.6142 21.6558C27.7057 20.536 27.8761 18.612 27.9928 17.3803C28.1095 16.1486 28.2251 14.8968 28.2497 14.5986C28.2824 14.2028 28.3244 14.0706 28.4056 14.1087C28.4873 14.147 28.4799 14.0816 28.378 13.8625C28.2403 13.5665 28.2338 13.5643 27.4906 13.5706C26.9296 13.5753 26.4641 13.6625 25.6348 13.9182ZM39.471 23.9963C38.7725 24.1862 38.4853 24.3548 37.8935 24.922C37.3616 25.4318 36.7806 26.3114 36.6218 26.8474C36.5721 27.0153 36.4694 27.5879 36.3936 28.1198C36.3179 28.6517 36.221 29.3078 36.1783 29.5778C36.1356 29.8477 36.0629 30.7181 36.0166 31.5119C35.9704 32.3057 35.9154 33.0239 35.8943 33.1078C35.8733 33.1918 35.7413 34.5825 35.6011 36.1983C35.4609 37.814 35.2932 39.6005 35.2287 40.1683C35.164 40.7361 35.0505 42.0245 34.9763 43.0315C34.9022 44.0383 34.804 44.9175 34.7583 44.9848C34.7125 45.0523 34.6872 45.2363 34.7019 45.3937L34.7287 45.6797L35.6363 45.7087C37.0682 45.7546 38.5563 45.3202 39.679 44.5286C41.0946 43.5305 42.3879 41.7129 42.9888 39.8773C43.4363 38.5103 43.805 36.2077 43.9241 34.036C43.9652 33.2868 44.0983 31.7751 44.2197 30.6767C44.4704 28.4096 44.4527 28.0764 44.0122 26.7818C43.7259 25.9401 43.0952 25.0536 42.4576 24.5963C42.0083 24.2743 40.7554 23.8415 40.3035 23.8524C40.1202 23.8569 39.7455 23.9216 39.471 23.9963Z" fill="#FBFBFB"/>
</svg>
