<svg width="26" height="45" viewBox="0 0 26 45" fill="none" xmlns="http://www.w3.org/2000/svg">
<path fill-rule="evenodd" clip-rule="evenodd" d="M2.22356 0.798472C2.22356 0.951676 1.77621 5.97686 1.64292 7.32026C1.55407 8.21607 1.42245 9.65904 1.35048 10.5268C1.27852 11.3947 1.16712 12.6315 1.10297 13.2754C1.03883 13.9192 0.962952 14.7667 0.934415 15.1586C0.905795 15.5505 0.769185 17.0083 0.630662 18.3982L0.378906 20.9252L0.566017 21.5029C0.669015 21.8208 0.780999 22.1266 0.814944 22.1825C0.848888 22.2385 0.941237 22.5592 1.02011 22.8951C1.09898 23.231 1.30132 23.964 1.46971 24.5239C1.78968 25.5879 2.03021 26.4194 2.55943 28.2903C2.73364 28.9062 3.05204 30.0056 3.26702 30.7334C3.71986 32.2668 4.55966 35.1968 4.84245 36.2304C4.94969 36.6224 5.22457 37.5843 5.45328 38.3682C5.68199 39.152 6.11703 40.6624 6.41995 41.7245C6.72287 42.7866 7.02663 43.76 7.09501 43.8877C7.23653 44.1519 7.3818 44.1927 7.3818 43.9681C7.3818 43.7807 7.55152 41.8546 7.92449 37.8083C8.43117 32.3116 8.5513 30.9664 8.67469 29.4101C8.77452 28.1507 9.05972 25.1011 9.16239 24.1966C9.17645 24.0726 9.16139 23.9581 9.12886 23.9421C9.09633 23.9261 8.81862 22.9981 8.5117 21.8798C8.20479 20.7616 7.92375 19.7996 7.88722 19.7421C7.85062 19.6847 7.79496 19.5002 7.76342 19.3322C7.70993 19.0474 7.51109 18.3509 6.60082 15.2604C6.4029 14.5885 6.18142 13.8098 6.10854 13.5298C5.98208 13.0438 5.52308 11.443 4.61998 8.33823C4.39202 7.55439 4.11622 6.57369 4.00723 6.15897C3.89824 5.74415 3.6801 4.98831 3.52252 4.47933C3.36494 3.97025 3.17916 3.32475 3.10961 3.04481C2.77782 1.70874 2.43579 0.754395 2.28879 0.754395C2.25293 0.754395 2.22356 0.774245 2.22356 0.798472ZM18.2487 13.6062C18.2245 13.9001 18.1092 15.1484 17.9925 16.3801C17.8758 17.6119 17.7053 19.5358 17.6134 20.6556C17.5216 21.7754 17.3922 23.204 17.3258 23.8303C17.2594 24.4566 17.1815 25.4415 17.1527 26.0189L17.1003 27.0688L17.555 28.1376C17.9706 29.1147 18.1981 29.642 19.1141 31.7514C19.2843 32.1433 19.7901 33.2885 20.238 34.2963C20.6861 35.3041 21.1728 36.4035 21.3198 36.7394C21.4667 37.0754 21.822 37.877 22.1094 38.5209C22.3968 39.1647 22.7821 40.0351 22.9657 40.455C23.1494 40.8749 23.4432 41.5391 23.6188 41.931C23.7944 42.323 24.0578 42.9285 24.2042 43.2768C24.4631 43.8925 24.6481 44.1077 24.7785 43.9449C24.8136 43.901 24.9028 43.0406 24.9766 42.0328C25.0504 41.0251 25.1648 39.7263 25.2308 39.1467C25.2968 38.5671 25.4455 36.9867 25.5614 35.6347C25.6772 34.2828 25.8274 32.6825 25.895 32.0788C26.0566 30.636 26.0502 30.2117 25.8609 29.8293C25.7744 29.6547 25.2456 28.4583 24.6857 27.1706C24.1258 25.8828 23.4969 24.4399 23.2882 23.964C23.0796 23.4881 22.7633 22.7551 22.5856 22.3352C22.4078 21.9153 22.1408 21.2969 21.9923 20.961C21.8437 20.6251 21.5425 19.9379 21.323 19.434C21.1035 18.9301 20.8208 18.2888 20.6948 18.0089C20.4567 17.4801 20.1341 16.7503 19.525 15.3622C19.3284 14.9143 19.0646 14.2915 18.9389 13.9782C18.7097 13.4069 18.4971 13.0718 18.3639 13.0718C18.3247 13.0718 18.2728 13.3123 18.2487 13.6062Z" fill="#0896F6"/>
</svg>
